<?xml version="1.0" standalone="no"?>
<!DOCTYPE svg PUBLIC "-//W3C//DTD SVG 20010904//EN"
 "http://www.w3.org/TR/2001/REC-SVG-20010904/DTD/svg10.dtd">
<svg version="1.0" xmlns="http://www.w3.org/2000/svg"
 width="300.000000pt" height="300.000000pt" viewBox="0 0 300.000000 300.000000"
 preserveAspectRatio="xMidYMid meet">
<metadata>
Created by potrace 1.10, written by Peter Selinger 2001-2011
</metadata>
<g transform="translate(0.000000,300.000000) scale(0.100000,-0.100000)"
fill="#000000" stroke="none">
<path d="M1410 2964 c-14 -2 -65 -9 -115 -15 -85 -11 -284 -62 -350 -91 -402
-176 -702 -498 -834 -895 -144 -431 -80 -900 173 -1276 369 -550 1053 -784
1680 -576 491 163 865 585 971 1094 40 193 40 397 0 590 -119 571 -570 1023
-1140 1139 -135 28 -306 41 -385 30z m290 -44 c74 -10 99 -16 190 -41 25 -7
50 -14 55 -15 39 -9 164 -63 231 -100 260 -141 459 -343 598 -607 58 -110 123
-302 137 -405 6 -42 13 -80 15 -84 5 -8 5 -279 0 -323 -43 -387 -254 -757
-561 -987 -309 -231 -699 -333 -1060 -277 -33 5 -76 12 -95 15 -19 3 -39 9
-45 13 -5 5 -27 11 -47 14 -52 8 -208 71 -304 123 -105 56 -231 150 -320 239
-75 73 -214 251 -214 272 0 7 -3 13 -7 13 -5 0 -13 10 -19 23 -6 12 -27 54
-46 92 -118 231 -167 543 -128 815 28 190 115 425 209 564 15 23 30 48 33 56
13 31 171 202 246 266 147 125 267 196 447 262 218 80 450 104 685 72z"/>
<path d="M1335 2373 c-290 -40 -577 -214 -708 -429 -143 -235 -133 -527 26
-764 17 -25 66 -80 109 -122 l78 -77 0 -161 c0 -147 2 -162 20 -180 11 -11 27
-20 35 -20 17 0 157 73 240 125 99 61 92 60 233 45 197 -20 395 3 527 60 184
80 260 128 350 217 346 346 299 829 -110 1125 -112 80 -262 141 -426 173 -75
14 -295 19 -374 8z m397 -43 c201 -41 370 -130 503 -265 144 -145 207 -290
208 -475 1 -184 -58 -330 -191 -471 -238 -253 -595 -356 -982 -285 -31 6 -52
-3 -205 -92 -93 -55 -176 -97 -183 -95 -9 4 -12 49 -12 178 l0 173 -99 99
c-86 86 -104 110 -144 193 -58 122 -72 182 -70 305 2 180 72 336 213 476 131
129 300 218 492 258 132 28 336 28 470 1z"/>
<path d="M1365 2304 c-232 -34 -432 -129 -570 -269 -123 -126 -184 -255 -193
-412 -8 -150 21 -256 105 -384 41 -64 173 -199 193 -199 6 0 10 -65 10 -169
l0 -170 159 93 159 93 73 -14 c101 -20 294 -19 402 1 343 65 617 293 682 568
72 304 -95 605 -423 764 -138 67 -256 95 -427 99 -77 2 -153 1 -170 -1z m393
-54 c228 -60 409 -183 517 -350 66 -102 87 -168 93 -292 4 -96 2 -116 -22
-192 -40 -129 -112 -230 -235 -328 -129 -104 -301 -175 -466 -193 -81 -9 -229
-8 -290 2 -120 19 -150 13 -275 -60 -77 -44 -118 -63 -125 -56 -5 5 -10 60
-11 122 -1 62 -2 117 -3 123 -1 6 -20 29 -43 50 -108 100 -157 159 -195 232
-56 106 -73 176 -70 292 5 173 67 301 208 434 119 112 265 186 444 226 116 26
358 21 473 -10z"/>
<path d="M1001 1871 c-46 -46 -50 -62 -48 -221 2 -105 5 -130 22 -159 17 -28
61 -61 99 -74 5 -2 10 -65 10 -144 1 -153 8 -173 55 -173 33 0 50 18 125 134
32 49 67 98 77 110 11 11 19 25 19 32 0 7 4 14 8 16 4 2 17 22 29 45 19 39 20
58 18 240 -3 251 14 233 -211 233 l-164 0 -39 -39z m382 -204 l-2 -207 -117
-171 c-80 -116 -122 -169 -133 -167 -14 3 -16 26 -19 164 l-2 160 -43 10 c-31
7 -47 18 -65 44 -22 33 -23 42 -20 178 l3 144 33 29 33 29 167 -2 166 -3 -1
-208z"/>
<path d="M1052 1824 c-21 -14 -22 -22 -22 -158 0 -162 3 -168 72 -172 22 -1
44 -6 50 -12 6 -6 9 -60 7 -141 -2 -72 -3 -131 -2 -131 2 0 43 61 93 135 l90
134 0 181 0 180 -133 0 c-104 0 -137 -3 -155 -16z m256 -178 l3 -159 -28 -41
c-41 -60 -77 -106 -84 -106 -4 0 -9 32 -11 70 -4 81 -24 110 -79 116 -18 2
-36 7 -40 12 -4 4 -8 43 -9 87 -3 193 -8 187 139 183 l106 -3 3 -159z"/>
<path d="M1653 1890 c-55 -33 -63 -63 -65 -222 -2 -175 5 -194 89 -236 l40
-21 0 -133 c-1 -150 8 -178 52 -178 29 0 46 16 96 90 16 25 32 47 35 50 4 3
17 23 30 45 13 22 27 42 30 45 4 3 24 34 46 69 l39 64 2 198 c2 185 1 199 -18
223 l-20 26 -162 0 c-143 0 -166 -2 -194 -20z m365 -218 l2 -202 -121 -176
c-80 -116 -126 -174 -136 -172 -14 3 -16 26 -14 166 l2 162 -28 0 c-47 0 -91
34 -103 79 -13 48 -12 221 1 273 5 20 21 46 36 58 25 19 37 20 192 18 l166 -3
3 -203z"/>
<path d="M1680 1820 c-18 -18 -20 -33 -20 -153 0 -157 5 -170 71 -173 24 -1
47 -2 52 -3 4 -1 7 -64 7 -141 l0 -141 88 128 87 128 5 188 5 187 -137 0
c-125 0 -140 -2 -158 -20z m258 -175 l2 -161 -47 -69 c-64 -91 -73 -93 -73
-12 0 77 -21 111 -74 121 -56 11 -59 19 -57 173 1 112 4 114 140 111 l106 -3
3 -160z"/>
</g>
</svg>
